<?xml version="1.0" encoding="UTF-8"?>
<svg width="775px" height="185px" viewBox="0 0 775 185" version="1.1" xmlns="http://www.w3.org/2000/svg" xmlns:xlink="http://www.w3.org/1999/xlink">
    <title>Group 5</title>
    <g id="Page-2" stroke="none" stroke-width="1" fill="none" fill-rule="evenodd">
        <g id="Group-5" transform="translate(0.000000, 0.406998)" fill="#FFFFFF">
            <g id="Group-2-Copy" transform="translate(-0.000000, 1.593002)">
                <path d="M69.5535184,93.5612874 C70.3647154,93.8745545 71.2913266,93.8745545 72.0926309,93.5612874 L84.4320582,88.7468663 L84.4320582,97.9305394 L57.2107935,97.9305394 L57.2107935,88.7468663 L69.5535184,93.5612874 Z M90.5654988,78.8707078 L70.8247234,86.5539964 L51.0855968,78.8707078 L70.8247234,72.110733 L90.5654988,78.8707078 Z M101.867847,75.3588184 L71.9574314,65.1199297 C71.2270244,64.8726135 70.4224225,64.8561258 69.6936642,65.1199297 L39.7815998,75.3588184 C38.3999269,75.836963 37.4518816,77.123007 37.419914,78.5904162 C37.3925257,80.0578254 38.2861614,81.3933326 39.648049,81.9209404 L50.2249366,86.0263886 L50.2249366,101.425941 C50.2249366,103.338519 51.7912722,104.904855 53.7170407,104.904855 L87.9241623,104.904855 C89.8499308,104.904855 91.4179152,103.338519 91.4179152,101.425941 L91.4179152,86.0428763 L96.7648904,83.9489329 L96.7648904,94.9297701 C96.7648904,96.8588361 98.3328748,98.4251717 100.258643,98.4251717 C102.184412,98.4251717 103.750747,96.8588361 103.750747,94.9297701 L103.750747,80.3875802 C104.077205,79.8434847 104.240433,79.2334382 104.229464,78.5904162 C104.197565,77.123007 103.247871,75.836963 101.867847,75.3588184 L101.867847,75.3588184 Z" id="Fill-123"></path>
                <path d="M90.1895783,125.563998 C84.8360079,127.88877 79.1345462,129.059399 73.2451242,129.059399 C66.3202719,129.059399 59.4448828,127.361162 53.3625542,124.16254 C51.0130507,122.925959 48.1013152,123.816297 46.8630856,126.174044 C45.6232073,128.515304 46.5250869,131.433634 48.8762391,132.670215 C56.3352943,136.610786 64.7621801,138.671754 73.2451242,138.671754 C80.4568632,138.671754 87.4427202,137.23732 94.0114372,134.401428 C96.4516233,133.346213 97.5727899,130.510321 96.5175743,128.070135 C95.4623587,125.629949 92.6297643,124.508782 90.1895783,125.563998" id="Fill-201"></path>
                <path d="M28.9672887,68.4009907 C26.4166348,67.6590422 23.7439716,69.1099636 22.9970768,71.6655639 C20.0342293,81.7890385 20.1958091,92.4566086 23.4653287,102.514132 C24.1264872,104.542125 26.0126851,105.844656 28.0406776,105.844656 C28.5336611,105.844656 29.0365373,105.762218 29.5295208,105.59734 C32.0570919,104.772953 33.4404136,102.068963 32.619324,99.5298506 C29.9499583,91.3189543 29.8164075,82.6299134 32.231862,74.3695538 C32.9804055,71.8139536 31.5179427,69.1429391 28.9672887,68.4009907" id="Fill-202"></path>
                <path d="M60.152207,45.6643922 C63.1760592,44.6916154 66.3285157,44.0650811 69.5238404,43.7847895 C75.6853102,43.2406939 81.7379609,44.0156179 87.5136175,46.0600981 C88.0461716,46.2414633 88.5886184,46.3403897 89.1228213,46.3403897 C91.1029993,46.3403897 92.9578704,45.1038089 93.6585995,43.1417675 C94.5472889,40.6356304 93.2381621,37.8821772 90.7336738,36.9918391 C83.6472416,34.4692143 76.2310545,33.5294129 68.6846143,34.1889227 C64.7770191,34.5351653 60.9155895,35.3100892 57.2124423,36.4972068 C54.6815737,37.3051062 53.2883593,40.0255839 54.0995563,42.5482087 C54.9124021,45.0873212 57.6213383,46.4722917 60.152207,45.6643922" id="Fill-203"></path>
                <path d="M145.083872,171.630753 C137.934786,171.630753 132.119559,165.81058 132.119559,158.671387 C132.119559,151.515706 137.934786,145.695533 145.083872,145.695533 C152.22966,145.695533 158.046536,151.515706 158.046536,158.671387 C158.046536,165.81058 152.22966,171.630753 145.083872,171.630753 Z M147.83073,136.248056 C142.333716,135.588546 137.164809,136.924053 132.943946,139.628043 L106.609722,113.099264 C104.774636,111.252636 101.800247,111.219661 99.932186,113.033313 C99.9074543,113.066288 99.8843715,113.082776 99.8629374,113.115751 C97.9487104,114.945891 97.9074911,117.996123 99.7804987,119.892214 L126.119669,146.404506 C123.381055,150.625368 122.012572,155.819007 122.650648,161.342401 C123.826224,171.498851 131.979413,179.775699 142.129268,181.061743 C156.887447,182.941345 169.360425,170.476611 167.482471,155.720081 C166.194779,145.596606 157.969043,137.435173 147.83073,136.248056 L147.83073,136.248056 Z" id="Fill-204"></path>
                <path d="M21.1455032,148.828204 C14.6806589,148.71279 9.51340007,143.354273 9.62551673,136.891078 C9.73763338,130.543296 14.993926,125.366145 21.3450049,125.366145 C21.4142534,125.366145 21.4851507,125.366145 21.5543992,125.366145 C28.0192435,125.481559 33.1865023,130.840076 33.0727369,137.303271 C32.9606202,143.717003 27.5806695,148.943618 21.1455032,148.828204 Z M46.5943354,112.456242 C46.5729014,112.439754 46.5498185,112.406778 46.5267357,112.390291 C44.6768108,110.510688 41.6595538,110.4942 39.7881949,112.340827 L32.9226984,119.166753 C29.6878031,117.07281 25.8511052,115.819741 21.7225742,115.75379 C15.9502152,115.654864 10.4993671,117.831246 6.39391898,121.854255 C2.37090954,125.811314 0.102196025,131.087392 0.00326956368,136.7262 C-0.201178457,148.498449 9.20837681,158.242706 20.9773282,158.440558 C21.102635,158.440558 21.2295907,158.440558 21.3548975,158.440558 C24.6639877,158.440558 27.9730778,157.781049 30.9045986,156.247689 C38.2581323,152.406044 42.5597846,145.266851 42.6966328,137.468149 C42.7691789,133.313237 41.6381197,129.389154 39.6249662,126.075118 L46.5696038,119.183241 C48.4327188,117.320126 48.4426115,114.319357 46.5943354,112.456242 L46.5943354,112.456242 Z" id="Fill-205"></path>
                <path d="M140.729459,83.8829819 C146.932148,79.7445582 153.654201,86.4550699 149.519075,92.6544615 C149.289895,93.0007041 148.979926,93.3139712 148.636981,93.5447996 C142.432643,97.6667355 135.725429,90.9562239 139.849013,84.7568323 C140.078193,84.4105897 140.384865,84.1138103 140.729459,83.8829819 Z M129.631559,93.264508 C132.324007,102.134914 142.625549,107.707771 152.890818,102.332767 C155.195805,101.129162 157.098491,99.2165834 158.305393,96.9247871 C164.560843,84.9876607 155.998758,72.9680956 144.686517,72.9680956 C137.783099,72.9680956 131.910165,77.4527619 129.794787,83.6356657 L116.325949,82.8112786 C113.682964,82.6464011 111.424143,84.6743936 111.303783,87.3289203 C111.302134,87.3783835 111.298836,87.411359 111.297188,87.4608223 C111.176827,90.049398 113.148761,92.2587556 115.734039,92.4236331 L129.631559,93.264508 L129.631559,93.264508 Z" id="Fill-206"></path>
                <path d="M27.3828166,21.1965807 C32.078526,21.1965807 35.9003849,25.0217372 35.9003849,29.7207442 C35.9003849,34.4032634 32.078526,38.2284199 27.3828166,38.2284199 C22.6871072,38.2284199 18.866897,34.4032634 18.866897,29.7207442 C18.866897,25.0217372 22.6871072,21.1965807 27.3828166,21.1965807 Z M24.8552455,47.6758969 C28.4034079,48.1705293 31.7883417,47.609946 34.7561355,46.2744387 L42.4592093,56.0186952 C44.1244714,58.1291264 47.1878942,58.4259058 49.2505109,56.6946927 C49.2735938,56.678205 49.2999741,56.6617172 49.3247058,56.6452295 C51.3065325,54.9964551 51.6033119,52.0616367 50.0040008,50.050132 L42.1921079,40.1739736 C44.8202542,36.4642313 46.0964056,31.7322489 45.2769647,26.6869993 C44.0535741,19.1685883 38.0355477,13.1010986 30.5270293,11.8315424 C18.1414363,9.73759893 7.50849045,20.3062426 9.47877581,32.6720503 C10.7137078,40.4377775 17.0763281,46.6206814 24.8552455,47.6758969 L24.8552455,47.6758969 Z" id="Fill-207"></path>
                <path d="M139.390654,9.62218472 C144.757414,9.62218472 149.123369,13.9914368 149.123369,19.3664412 C149.123369,24.7249579 144.757414,29.0942099 139.390654,29.0942099 C134.022245,29.0942099 129.65629,24.7249579 129.65629,19.3664412 C129.65629,13.9914368 134.022245,9.62218472 139.390654,9.62218472 Z M100.288321,58.9205381 C100.311404,58.9370258 100.334487,58.9700013 100.35757,58.9864891 C102.232226,60.8660918 105.264322,60.8496041 107.119193,58.9700013 L129.580447,36.03555 C133.206101,38.1789566 137.585246,39.184709 142.219951,38.5087115 C150.434145,37.3380817 157.134764,30.8089352 158.480163,22.6145267 C160.651599,9.39135631 149.324519,-1.9192358 136.101349,0.273634102 C127.903643,1.62562908 121.377794,8.35262847 120.22695,16.5800125 C119.575684,21.2295562 120.591329,25.615296 122.757818,29.2425996 L100.245453,52.2265142 C98.4169623,54.0896292 98.4367476,57.0739108 100.288321,58.9205381 L100.288321,58.9205381 Z" id="Fill-208"></path>
            </g>
            <g id="Group-3-Copy" transform="translate(203.719935, 0.000000)">
                <path d="M-2.27373675e-13,70.1310017 L6.01,63.2330017 C11.7,69.1270017 19.59,73.0090017 27.8,73.0060017 C38.16,73.0030017 44.3,67.8400017 44.3,60.1700017 C44.3,52.1070017 38.58,49.5380017 31.12,46.2860017 L19.78,41.2870017 C12.42,38.1480017 3.79,32.5750017 3.79,20.9620017 C3.78,8.90400167 14.29,0.00500166555 28.63,0 C37.99,-0.00299833445 46.34,4.04700167 51.88,9.77500167 L46.56,16.2300017 C41.72,11.6650017 35.93,8.83000167 28.64,8.83300167 C19.78,8.83500167 13.92,13.3040017 13.92,20.3650017 C13.92,27.9710017 20.81,30.8140017 26.99,33.4260017 L38.25,38.2910017 C47.39,42.2120017 54.5200073,47.6550017 54.5200073,59.3940017 C54.53,71.8660017 44.22,81.8330017 27.62,81.8390032 C16.54,81.8420017 6.91,77.3250017 -2.27373675e-13,70.1310017" id="Fill-309"></path>
                <polyline id="Fill-310" points="83.98 9.93000167 60.09 9.93800167 60.09 1.43200167 117.9 1.41200167 117.91 9.91800167 94.02 9.92600167 94.05 80.3740017 84 80.3770017 83.98 9.93000167"></polyline>
                <path d="M131.7,47.7570017 L131.68,1.40700167 L141.73,1.40400167 L141.75,48.0320017 C141.75,67.0020017 149.77,72.9640017 160.08,72.9610017 C170.54,72.9580017 178.8,66.9900017 178.79,48.0200017 L178.78,1.39100167 L188.41,1.38800167 L188.420006,47.7380017 C188.43,73.0750017 176.2,81.7880017 160.09,81.7940038 C143.97,81.7990017 131.71,73.0950017 131.7,47.7570017" id="Fill-311"></path>
                <path d="M228.63,72.0890017 C247.08,72.0830017 256.29,60.5150017 256.280008,40.5580017 C256.27,20.6000017 247.06,9.60800167 228.61,9.61499832 L219.65,9.61800167 L219.67,72.0920017 L228.63,72.0890017 Z M209.6,1.38000167 L229.35,1.37399736 C253.63,1.36500167 266.65,15.4710017 266.660006,40.5540017 C266.67,65.6370017 253.65,80.3190017 229.82,80.3270017 L209.63,80.3340017 L209.6,1.38000167 L209.6,1.38000167 Z" id="Fill-312"></path>
                <path d="M294,49.7100017 L270.25,1.36000167 L280.98,1.35600167 L291.17,23.6450017 C293.71,29.4630017 296.09,34.9510017 298.82,40.8560017 L299.3,40.8560017 C302.03,34.9490017 304.75,29.4590017 307.18,23.6390017 L317.35,1.34400167 L327.76,1.34000167 L304.04,49.7060017 L304.05,80.3020017 L294.01,80.3050017 L294,49.7100017" id="Fill-313"></path>
                <polyline id="Fill-314" points="21.6 118.886002 0.02 118.894002 0.02 104.029002 60.9 104.008002 60.91 118.873002 39.33 118.880002 39.35 182.419002 21.62 182.425002 21.6 118.886002"></polyline>
                <path d="M119.130011,142.851002 C119.130011,127.131002 112.37,117.853002 101.68,117.856001 C90.98,117.860002 84.24,127.143002 84.24,142.862002 C84.25,158.582002 91,168.539002 101.7,168.536002 C112.39,168.532002 119.14,158.570002 119.130011,142.851002 Z M66.0799948,142.869002 C66.07,117.251002 80.53,102.557002 101.67,102.549999 C122.82,102.543002 137.29,117.326002 137.3,142.844002 C137.3,168.460002 122.85,183.835002 101.7,183.842004 C80.56,183.849002 66.09,168.484002 66.0799948,142.869002 L66.0799948,142.869002 Z" id="Fill-315"></path>
                <path d="M148.359996,143.632002 C148.35,117.621002 165.63,102.528002 186.56,102.520999 C197.94,102.517002 206.02,107.370002 211.3,112.689002 L201.96,124.061002 C198.07,120.481002 193.88,117.825002 187.16,117.827002 C175.09,117.831002 166.52,127.313002 166.52,143.032002 C166.53,159.148002 173.83,168.511002 188.59,168.506002 C191.73,168.505002 194.98,167.686002 196.89,166.171002 L196.89,152.633002 L183.9,152.637002 L183.89,138.169002 L212.63,138.159002 L212.64,174.306002 C207.23,179.603002 197.71,183.809002 186.77,183.813004 C165.17,183.820002 148.37,170.043002 148.359996,143.632002" id="Fill-316"></path>
                <polyline id="Fill-317" points="228.8 103.951002 277.92 103.934002 277.93 118.799002 246.53 118.810002 246.53 134.553002 273.26 134.544002 273.27 149.411002 246.54 149.420002 246.54 167.481002 279.15 167.470002 279.15 182.337002 228.82 182.354002 228.8 103.951002"></polyline>
                <polyline id="Fill-318" points="310.06 118.788002 288.48 118.795002 288.48 103.930002 349.36 103.910002 349.37 118.774002 327.79 118.782002 327.81 182.320002 310.08 182.326002 310.06 118.788002"></polyline>
                <polyline id="Fill-319" points="361.6 103.905002 379.33 103.899002 379.34 134.112002 406.4 134.103002 406.39 103.890002 424.12 103.884002 424.14 182.287002 406.42 182.293002 406.41 149.562002 379.34 149.571002 379.35 182.302002 361.63 182.309002 361.6 103.905002"></polyline>
                <polyline id="Fill-320" points="442.68 103.877002 491.8 103.861002 491.81 118.726002 460.41 118.736002 460.41 134.480002 487.14 134.471002 487.15 149.338002 460.42 149.347002 460.42 167.408002 493.03 167.397002 493.03 182.264002 442.7 182.281002 442.68 103.877002"></polyline>
                <path d="M535.4,139.960002 C544.73,139.958002 549.73,135.966002 549.73,128.254002 C549.73,120.501002 544.72,117.914002 535.39,117.916999 L526.33,117.920002 L526.34,139.963002 L535.4,139.960002 Z M536.83,103.844995 C553.46,103.840002 567.1,109.609002 567.1,128.248002 C567.106399,139.778779 561.527194,147.108478 553.150593,150.893532 L570.9,182.237002 L551.07,182.244002 L536.09,154.032992 L526.34,154.037002 L526.35,182.252002 L508.62,182.258002 L508.6,103.855002 L536.83,103.844995 Z" id="Fill-321"></path>
            </g>
        </g>
    </g>
</svg>